<svg xmlns="http://www.w3.org/2000/svg" xmlns:xlink="http://www.w3.org/1999/xlink" width="82" height="32" viewBox="0 0 82 32">
    <defs>
        <path id="a" d="M15.631 17.66a23.67 23.67 0 0 1 1.528-.672c.655-.266 1.07-.4 1.247-.4.128 0 .192.071.192.212 0 .14-.034.286-.103.437-.069.151-.14.282-.214.392-.074.11-.17.247-.288.407l-.221.302c-.473.684-1.152 1.252-2.037 1.704-.305.161-.746.372-1.321.634-.576.261-.977.452-1.203.573l-.783 1.206c-1.663 2.514-3.053 4.399-4.17 5.655-1.116 1.257-2.15 2.167-3.1 2.73-.949.563-2.053.844-3.313.844-.61 0-1.07-.268-1.38-.806A3.558 3.558 0 0 1 0 29.068c0-.669.204-1.36.613-2.074.408-.713.971-1.395 1.69-2.043a26.786 26.786 0 0 1 4.871-3.521 76.345 76.345 0 0 1 4.502-2.308A436.447 436.447 0 0 1 22.584 3.453c.078-.08.118-.14.118-.18 0-.04-.148-.06-.443-.06-.295 0-.955.1-1.978.3-2.234.463-4.453 1.3-6.657 2.512-2.204 1.211-4.094 2.599-5.668 4.162-1.575 1.563-2.362 2.833-2.362 3.808 0 .492.207.897.62 1.214.414.317.859.475 1.336.475.477 0 .97-.123 1.476-.37a8.162 8.162 0 0 0 1.262-.739c.335-.246.527-.369.576-.369.049 0 .074.07.074.211 0 .734-.19 1.365-.569 1.893-.379.528-.903.922-1.572 1.184-.669.261-1.31.392-1.926.392-.615 0-1.242-.131-1.882-.392a4.038 4.038 0 0 1-1.631-1.222 2.914 2.914 0 0 1-.672-1.885c0-.302.064-.659.192-1.07.975-3.238 4.158-6.36 9.55-9.366 1.85-1.025 3.92-1.852 6.207-2.48 2.288-.629 4.45-.943 6.488-.943.373 0 .698.12.974.362.275.241.413.497.413.769 0 .271-.02.462-.059.573-.04.11-.217.397-.531.86-.315.462-.635.91-.96 1.342a340.215 340.215 0 0 0-2.288 3.061c-.63.855-2.976 4.243-7.04 10.164zm-6.258 5.036c-4.842 3.067-7.262 5.118-7.262 6.153 0 .222.17.332.509.332.34 0 .785-.176 1.336-.528a9.842 9.842 0 0 0 1.557-1.236 21.695 21.695 0 0 0 1.557-1.704 50.152 50.152 0 0 0 2.303-3.017zm20.96-11.582c.295 0 .598.136.908.408.31.271.465.686.465 1.244 0 .558-.192 1.282-.576 2.171-.384.89-.91 1.795-1.58 2.715-.668.92-1.404 1.784-2.206 2.594a11.6 11.6 0 0 1-2.598 1.99c-.93.518-1.774.777-2.531.777-.758 0-1.366-.244-1.823-.731-.458-.488-.687-1.167-.687-2.036 0-.87.21-1.832.628-2.888a10.538 10.538 0 0 1 1.616-2.798c.66-.809 1.373-1.535 2.14-2.179 1.604-1.317 3.011-1.975 4.222-1.975.541 0 .95.135 1.225.407.098.09.148.17.148.241v.09c.137-.02.354-.03.649-.03zm12.654 7.395c.424-.748 1.018-1.775 1.782-3.081a198.085 198.085 0 0 0 1.624-2.805c.373-.664.679-1.147.915-1.448.443-.573 1.19-.86 2.243-.86.236 0 .355.151.355.453 0 .472-.428 1.362-1.285 2.669l-.62.95c2.323-2.694 4.3-4.042 5.934-4.042.404 0 .736.123.997.37.26.246.39.565.39.957 0 .393-.272 1.049-.819 1.968-.546.92-1.05 1.697-1.512 2.33-.246.322-.524.483-.834.483-.31 0-.552-.116-.724-.347a1.326 1.326 0 0 1-.258-.814c0-.694.364-1.478 1.092-2.353l-.03-.03c-.324.03-1.128.684-2.413 1.96a79.833 79.833 0 0 0-3.276 3.431c-.9 1.01-1.878 2.24-2.93 3.688-.306.432-.564.648-.775.648-.212 0-.492-.068-.842-.204-.31-.12-.511-.21-.604-.272a69.273 69.273 0 0 0-5.544 5.453c-.049.05-.199.304-.45.761-.25.458-.519.92-.804 1.388a7.318 7.318 0 0 1-1.056 1.334c-.418.423-.767.651-1.048.687-.28.035-.46.052-.538.052-.906 0-1.358-.467-1.358-1.402 0-1.096.556-2.378 1.668-3.846.423-.553.954-1.148 1.594-1.787.64-.638.989-1 1.048-1.086.059-.085.797-1.495 2.214-4.23-.945 1.056-1.82 1.913-2.628 2.571-.806.659-1.584 1.028-2.332 1.109h-.103c-.384 0-.763-.128-1.137-.385-.373-.256-.56-.706-.56-1.35 0-.954.25-1.88.752-2.774.177-.312.485-.84.923-1.584.438-.744.844-1.463 1.218-2.156.354-.553.718-1.197 1.092-1.93.374-.734.66-1.26.856-1.576.197-.317.384-.476.56-.476.178 0 .407.114.687.34.28.226.421.495.421.807 0 .311-.645 1.664-1.934 4.056-1.289 2.393-1.933 3.755-1.933 4.087 0 .08.039.12.118.12.265 0 .853-.384 1.764-1.153.91-.769 1.916-1.757 3.018-2.963 1.23-1.337 2.195-2.559 2.893-3.665.089-.14.16-.249.214-.324.054-.075.123-.176.207-.302.084-.125.152-.223.207-.294l.191-.249c.074-.095.14-.168.2-.218.059-.05.123-.1.192-.151a.52.52 0 0 1 .361-.15c.133 0 .335.03.605.09.271.06.433.125.488.196.054.07.11.135.17.196.098.11.147.213.147.309 0 .095-.04.221-.118.377-.079.156-.536.953-1.373 2.39-2.46 4.243-4.153 7.34-5.078 9.29 1.395-1.2 3.32-2.938 5.776-5.213zM28.842 13.12c.138 0 .207.133.207.4 0 .266-.195.769-.583 1.508-.389.739-.974 1.611-1.757 2.616-.782 1.006-1.572 1.78-2.369 2.323-.797.543-1.397.814-1.8.814-.404 0-.606-.281-.606-.844.02-1.136.66-2.529 1.92-4.178a11.033 11.033 0 0 1 2.11-2.141c.787-.603 1.54-1.026 2.258-1.267 0 .513.172.77.517.77h.103zm34.496-7.073c0 .573-.261 1.149-.783 1.727-.521.578-1.065.867-1.63.867-.566 0-.85-.301-.85-.905 0-.603.25-1.178.746-1.726.497-.548 1.046-.822 1.646-.822.266 0 .477.075.635.226.157.15.236.362.236.633zm8.302 15.724l-.177.149c-.969.81-1.886 1.214-2.752 1.214-1.477 0-2.215-.639-2.215-1.915 0-.795.296-1.835.886-3.122-.797 1.055-1.609 1.955-2.435 2.7-1.536 1.367-2.869 2.05-4 2.05-.63 0-1.095-.226-1.395-.678a2.17 2.17 0 0 1-.211-.411 6.56 6.56 0 0 1-.786.539c-1.053.618-1.968.927-2.745.927a2.814 2.814 0 0 1-2.008-.799c-.56-.533-.841-1.076-.841-1.629 0-.553.27-1.357.812-2.413a47.776 47.776 0 0 1 1.623-2.925c.542-.895.812-1.38.812-1.456 0-.075-.1-.223-.302-.444-.202-.222-.303-.385-.303-.49 0-.106.204-.383.613-.83a10.6 10.6 0 0 1 1.49-1.327c.586-.437 1.034-.656 1.344-.656.31 0 .588.14.834.422s.369.538.369.77c0 .23-1.171 2.407-3.513 6.53-.03.06-.111.193-.244.399a8.37 8.37 0 0 0-.31.513c-.074.135-.16.299-.258.49-.197.402-.295.739-.295 1.01 0 .342.226.513.679.513.452 0 .922-.159 1.41-.475a6.658 6.658 0 0 0 1.261-1.048l.288-.313c.157-.578.426-1.212.805-1.904a13.627 13.627 0 0 1 2.428-3.205 14.31 14.31 0 0 1 3.225-2.383c1.18-.638 2.268-.957 3.262-.957.315 0 .684.196 1.107.588.285-.463.812-1.387 1.58-2.775 2.41-4.152 4.004-6.686 4.782-7.6L78.393 0c.187 0 .335.06.443.181.109.12.163.244.163.37 0 .125-.096.356-.288.693-.192.337-.632 1.07-1.321 2.202a358.271 358.271 0 0 0-1.61 2.662c-2.233 3.71-3.984 6.846-5.254 9.41-1.27 2.564-1.904 4.112-1.904 4.645v.12c0 .413.148.619.443.619.295 0 .652-.14 1.07-.422a7.003 7.003 0 0 0 1.138-.944c.295-1.012 1.199-1.805 2.712-2.38-.374-.17-.615-.389-.723-.655-.109-.267-.163-.694-.163-1.282 0-.588.269-1.212.805-1.87a6.529 6.529 0 0 1 1.97-1.621c1.732-.955 3.277-1.433 4.635-1.433.325 0 .655.08.99.241.334.161.501.387.501.679 0 .664-.263 1.247-.79 1.75-.526.502-1.124.753-1.793.753-.217 0-.36-.052-.428-.158a.748.748 0 0 1-.103-.415c0-.17.02-.336.059-.497-.355.12-.748.306-1.181.558-.433.251-.965.623-1.594 1.116-.63.492-.945.86-.945 1.1 0 .08.116.121.347.121.231 0 .588-.083 1.07-.249.482-.166.82-.249 1.011-.249.192 0 .317.01.376.03.128.071.266.224.414.46.147.237.221.423.221.559 0 .135-.128.314-.384.535-.256.221-.546.39-.87.505a5.114 5.114 0 0 0-.65.264c-2.076 1.186-3.114 2-3.114 2.443 0 .784.654 1.176 1.963 1.176.836 0 1.677-.271 2.524-.814a19.968 19.968 0 0 0 1.94-1.41c.576-.478.94-.772 1.093-.882.153-.11.268-.166.347-.166.256 0 .384.291.384.875 0 .583-.035.967-.104 1.153-.069.186-.265.415-.59.686-2.106 1.75-4.099 2.624-5.978 2.624-1.004 0-1.806-.14-2.406-.422-.512-.238-.905-.535-1.18-.89zm-2.442-9.148c-1.417.321-2.736.995-3.956 2.02-1.22 1.026-2.136 2.1-2.746 3.22-.61 1.121-.915 1.847-.915 2.18 0 .331.07.497.207.497.59 0 2.052-1.347 4.384-4.042a40.861 40.861 0 0 0 3.026-3.875z"/>
    </defs>
    <g fill="none" fill-rule="evenodd">
        <mask id="b" fill="#fff">
            <use xlink:href="#a"/>
        </mask>
        <use fill="#212121" xlink:href="#a"/>
        <g fill="#212121" fill-rule="nonzero" mask="url(#b)">
            <path d="M0 0h82v32H0z"/>
        </g>
    </g>
</svg>
